<svg xmlns="http://www.w3.org/2000/svg" width="200" height="180.602" viewBox="0 0 200 180.602">
  <g id="Grupo_144359" data-name="Grupo 144359" transform="translate(-231.166 -510.019)">
    <g id="Grupo_144358" data-name="Grupo 144358">
      <g id="Grupo_144357" data-name="Grupo 144357">
        <g id="Grupo_144356" data-name="Grupo 144356">
          <g id="Grupo_144355" data-name="Grupo 144355">
            <g id="Grupo_144354" data-name="Grupo 144354">
              <g id="Grupo_144353" data-name="Grupo 144353">
                <g id="Grupo_144352" data-name="Grupo 144352">
                  <g id="Grupo_144351" data-name="Grupo 144351">
                    <path id="blob_2_" data-name="blob(2)" d="M125.5.542c13.429,36.388-.144,86.639-29.457,105.555C66.726,125.158,21.818,112.74-13.993,86.892S-76.517,21.913-67.564-8.266c8.953-30.324,53.572-51.55,96.314-50.828C71.347-58.372,112.067-35.846,125.5.542Z" transform="translate(300.472 571.885)" fill="#a2e6b0" opacity="0.25"/>
                    <path id="Trazado_200983" data-name="Trazado 200983" d="M6.917-11.919H1.871v-4.93H-1.87v4.93H-6.887v3.538H-1.87v4.93H1.871v-4.93H6.917Z" transform="translate(341.102 628.241)" fill="#ff6b00"/>
                    <path id="Trazado_200984" data-name="Trazado 200984" d="M6.917-11.919H1.871v-4.93H-1.87v4.93H-6.887v3.538H-1.87v4.93H1.871v-4.93H6.917Z" transform="translate(259.292 650.393)" fill="#3d5075"/>
                    <path id="Trazado_200985" data-name="Trazado 200985" d="M6.917-11.919H1.871v-4.93H-1.87v4.93H-6.887v3.538H-1.87v4.93H1.871v-4.93H6.917Z" transform="translate(368.856 535.019)" fill="#48a5f0"/>
                    <path id="Trazado_200986" data-name="Trazado 200986" d="M6,0a5.766,5.766,0,0,1,6,5.5A5.766,5.766,0,0,1,6,11,5.766,5.766,0,0,1,0,5.5,5.766,5.766,0,0,1,6,0Z" transform="translate(244.291 537.807)" fill="#3d5075"/>
                    <path id="Trazado_200987" data-name="Trazado 200987" d="M6,0A6,6,0,1,1,0,6,6,6,0,0,1,6,0Z" transform="translate(281.319 665.62)" fill="#48a5f0"/>
                    <path id="Trazado_200988" data-name="Trazado 200988" d="M5.5,0A5.766,5.766,0,0,1,11,6a5.766,5.766,0,0,1-5.5,6A5.766,5.766,0,0,1,0,6,5.766,5.766,0,0,1,5.5,0Z" transform="translate(387.115 659.62)" fill="#3d5075"/>
                    <path id="Trazado_200989" data-name="Trazado 200989" d="M15,0A14.756,14.756,0,0,1,30,14.5,14.756,14.756,0,0,1,15,29,14.756,14.756,0,0,1,0,14.5,14.756,14.756,0,0,1,15,0Z" transform="translate(299.398 522.019)" fill="#48a5f0" opacity="0.25"/>
                    <path id="Trazado_200990" data-name="Trazado 200990" d="M14.5,0A14.756,14.756,0,0,1,29,15,14.756,14.756,0,0,1,14.5,30,14.756,14.756,0,0,1,0,15,14.756,14.756,0,0,1,14.5,0Z" transform="translate(384.736 611.579)" fill="#48a5f0" opacity="0.25"/>
                    <path id="Trazado_200991" data-name="Trazado 200991" d="M10.5,0A10.5,10.5,0,1,1,0,10.5,10.5,10.5,0,0,1,10.5,0Z" transform="translate(407.736 510.019)" fill="#48a5f0" opacity="0.25"/>
                    <path id="Trazado_200992" data-name="Trazado 200992" d="M10.5,0A10.5,10.5,0,1,1,0,10.5,10.5,10.5,0,0,1,10.5,0Z" transform="translate(243.291 669.62)" fill="#48a5f0" opacity="0.1"/>
                    <path id="Trazado_200993" data-name="Trazado 200993" d="M15,0A15,15,0,1,1,0,15,15,15,0,0,1,15,0Z" transform="translate(294.799 650.62)" fill="#48a5f0" opacity="0.25"/>
                    <g id="Trazado_200994" data-name="Trazado 200994" transform="translate(381.548 606.809)" fill="none">
                      <path d="M5.5,0A5.766,5.766,0,0,1,11,6a5.766,5.766,0,0,1-5.5,6A5.766,5.766,0,0,1,0,6,5.766,5.766,0,0,1,5.5,0Z" stroke="none"/>
                      <path d="M 5.5 2 C 3.570089817047119 2 2 3.794389724731445 2 6 C 2 8.205610275268555 3.570089817047119 10 5.5 10 C 7.429909706115723 10 9 8.205610275268555 9 6 C 9 3.794389724731445 7.429909706115723 2 5.5 2 M 5.5 0 C 8.537569999694824 0 11 2.68628978729248 11 6 C 11 9.31371021270752 8.537569999694824 12 5.5 12 C 2.462430000305176 12 0 9.31371021270752 0 6 C 0 2.68628978729248 2.462430000305176 0 5.5 0 Z" stroke="none" fill="#48a5f0"/>
                    </g>
                    <g id="Trazado_200995" data-name="Trazado 200995" transform="translate(253.291 578.83)" fill="none">
                      <path d="M6,0A6,6,0,1,1,0,6,6,6,0,0,1,6,0Z" stroke="none"/>
                      <path d="M 6 2 C 3.794389724731445 2 2 3.794389724731445 2 6 C 2 8.205610275268555 3.794389724731445 10 6 10 C 8.205610275268555 10 10 8.205610275268555 10 6 C 10 3.794389724731445 8.205610275268555 2 6 2 M 6 0 C 9.31371021270752 0 12 2.68628978729248 12 6 C 12 9.31371021270752 9.31371021270752 12 6 12 C 2.68628978729248 12 0 9.31371021270752 0 6 C 0 2.68628978729248 2.68628978729248 0 6 0 Z" stroke="none" fill="#48a5f0"/>
                    </g>
                    <path id="Icon_awesome-hand-point-right" data-name="Icon awesome-hand-point-right" d="M91.4,23.54a7.825,7.825,0,0,1-7.774,7.605H66.3a8.536,8.536,0,0,1-1.093,12.311,7.949,7.949,0,0,1-2.855,10.814c1.557,8.528-3.808,12.367-12.6,12.367-.477,0-2.3-.035-2.777-.034-10.754.029-13.344-5.391-21.472-6.649a4.16,4.16,0,0,1-3.517-4.113V26.076h0a8.33,8.33,0,0,1,4.939-7.609c5.013-2.255,16.557-8.51,18.661-13.418C46.941,1.891,49.3,0,52.529,0a8.335,8.335,0,0,1,7.656,11.611,23.586,23.586,0,0,1-2.456,4.324h25.9A7.951,7.951,0,0,1,91.4,23.54Zm-74.741.06V56.919a4.165,4.165,0,0,1-4.165,4.165H4.165A4.165,4.165,0,0,1,0,56.919V23.6a4.165,4.165,0,0,1,4.165-4.165h8.33A4.165,4.165,0,0,1,16.659,23.6ZM11.8,52.755A3.471,3.471,0,1,0,8.33,56.225,3.471,3.471,0,0,0,11.8,52.755Z" transform="translate(306.804 665.541) rotate(-90)" fill="#fff"/>
                    <path id="Icon_awesome-hand-point-right-2" data-name="Icon awesome-hand-point-right" d="M91.4,23.54a7.825,7.825,0,0,1-7.774,7.605H66.3a8.536,8.536,0,0,1-1.093,12.311,7.949,7.949,0,0,1-2.855,10.814c1.557,8.528-3.808,12.367-12.6,12.367-.477,0-2.3-.035-2.777-.034-10.754.029-13.344-5.391-21.472-6.649a4.16,4.16,0,0,1-3.517-4.113V26.076h0a8.33,8.33,0,0,1,4.939-7.609c5.013-2.255,16.557-8.51,18.661-13.418C46.941,1.891,49.3,0,52.529,0a8.335,8.335,0,0,1,7.656,11.611,23.586,23.586,0,0,1-2.456,4.324h25.9A7.951,7.951,0,0,1,91.4,23.54Zm-74.741.06V56.919a4.165,4.165,0,0,1-4.165,4.165H4.165A4.165,4.165,0,0,1,0,56.919V23.6a4.165,4.165,0,0,1,4.165-4.165h8.33A4.165,4.165,0,0,1,16.659,23.6ZM11.8,52.755A3.471,3.471,0,1,0,8.33,56.225,3.471,3.471,0,0,0,11.8,52.755Z" transform="translate(307.441 664.903) rotate(-90)" fill="none" stroke="#404040" stroke-width="3"/>
                    <g id="Trazado_200996" data-name="Trazado 200996" transform="translate(344.517 538.111)" fill="#fff">
                      <path d="M 25.5 49.5 C 22.25935935974121 49.5 19.1164493560791 48.86565017700195 16.1585807800293 47.61457824707031 C 13.30084991455078 46.40586090087891 10.73404026031494 44.6751594543457 8.529439926147461 42.47055816650391 C 6.324840068817139 40.26596069335938 4.59414005279541 37.69915008544922 3.385420083999634 34.8414192199707 C 2.134350061416626 31.8835506439209 1.5 28.74064064025879 1.5 25.5 C 1.5 22.25935935974121 2.134350061416626 19.1164493560791 3.385420083999634 16.1585807800293 C 4.59414005279541 13.30084991455078 6.324840068817139 10.73404026031494 8.529439926147461 8.529439926147461 C 10.73404026031494 6.324840068817139 13.30084991455078 4.59414005279541 16.1585807800293 3.385420083999634 C 19.1164493560791 2.134350061416626 22.25935935974121 1.5 25.5 1.5 C 28.74064064025879 1.5 31.8835506439209 2.134350061416626 34.8414192199707 3.385420083999634 C 37.69915008544922 4.59414005279541 40.26596069335938 6.324840068817139 42.47055816650391 8.529439926147461 C 44.6751594543457 10.73404026031494 46.40586090087891 13.30084991455078 47.61457824707031 16.1585807800293 C 48.86565017700195 19.1164493560791 49.5 22.25935935974121 49.5 25.5 C 49.5 28.74064064025879 48.86565017700195 31.8835506439209 47.61457824707031 34.8414192199707 C 46.40586090087891 37.69915008544922 44.6751594543457 40.26596069335938 42.47055816650391 42.47055816650391 C 40.26596069335938 44.6751594543457 37.69915008544922 46.40586090087891 34.8414192199707 47.61457824707031 C 31.8835506439209 48.86565017700195 28.74064064025879 49.5 25.5 49.5 Z" stroke="none"/>
                      <path d="M 25.5 3 C 22.46120071411133 3 19.51489067077637 3.594478607177734 16.7429084777832 4.766929626464844 C 14.06398010253906 5.900020599365234 11.65742874145508 7.522769927978516 9.590099334716797 9.590099334716797 C 7.522769927978516 11.65742874145508 5.900020599365234 14.06398010253906 4.766929626464844 16.7429084777832 C 3.594478607177734 19.51489067077637 3 22.46120071411133 3 25.5 C 3 28.53879928588867 3.594478607177734 31.48510932922363 4.766929626464844 34.25708770751953 C 5.900020599365234 36.93601989746094 7.522769927978516 39.34257125854492 9.590099334716797 41.4099006652832 C 11.65742874145508 43.47723007202148 14.06398010253906 45.09997940063477 16.7429084777832 46.23307037353516 C 19.51489067077637 47.40552139282227 22.46120071411133 48 25.5 48 C 28.53879928588867 48 31.48510932922363 47.40552139282227 34.25708770751953 46.23307037353516 C 36.93601989746094 45.09997940063477 39.34257125854492 43.47723007202148 41.4099006652832 41.4099006652832 C 43.47723007202148 39.34257125854492 45.09997940063477 36.93601989746094 46.23307037353516 34.25708770751953 C 47.40552139282227 31.48510932922363 48 28.53879928588867 48 25.5 C 48 22.46120071411133 47.40552139282227 19.51489067077637 46.23307037353516 16.7429084777832 C 45.09997940063477 14.06398010253906 43.47723007202148 11.65742874145508 41.4099006652832 9.590099334716797 C 39.34257125854492 7.522769927978516 36.93601989746094 5.900020599365234 34.25708770751953 4.766929626464844 C 31.48510932922363 3.594478607177734 28.53879928588867 3 25.5 3 M 25.5 0 C 39.58325958251953 0 51 11.41674041748047 51 25.5 C 51 39.58325958251953 39.58325958251953 51 25.5 51 C 11.41674041748047 51 0 39.58325958251953 0 25.5 C 0 11.41674041748047 11.41674041748047 0 25.5 0 Z" stroke="none" fill="#404040"/>
                    </g>
                    <path id="Trazado_23" data-name="Trazado 23" d="M14.137-14,5.8,5.463H.374L-7.94-14h5.95L3.293-1.321,8.687-14Z" transform="translate(367.262 567.696)" fill="#404040"/>
                    <g id="Trazado_200997" data-name="Trazado 200997" transform="translate(267.517 538.111)" fill="#fff">
                      <path d="M 25.5 49.5 C 22.25935935974121 49.5 19.1164493560791 48.86565017700195 16.1585807800293 47.61457824707031 C 13.30084991455078 46.40586090087891 10.73404026031494 44.6751594543457 8.529439926147461 42.47055816650391 C 6.324840068817139 40.26596069335938 4.59414005279541 37.69915008544922 3.385420083999634 34.8414192199707 C 2.134350061416626 31.8835506439209 1.5 28.74064064025879 1.5 25.5 C 1.5 22.25935935974121 2.134350061416626 19.1164493560791 3.385420083999634 16.1585807800293 C 4.59414005279541 13.30084991455078 6.324840068817139 10.73404026031494 8.529439926147461 8.529439926147461 C 10.73404026031494 6.324840068817139 13.30084991455078 4.59414005279541 16.1585807800293 3.385420083999634 C 19.1164493560791 2.134350061416626 22.25935935974121 1.5 25.5 1.5 C 28.74064064025879 1.5 31.8835506439209 2.134350061416626 34.8414192199707 3.385420083999634 C 37.69915008544922 4.59414005279541 40.26596069335938 6.324840068817139 42.47055816650391 8.529439926147461 C 44.6751594543457 10.73404026031494 46.40586090087891 13.30084991455078 47.61457824707031 16.1585807800293 C 48.86565017700195 19.1164493560791 49.5 22.25935935974121 49.5 25.5 C 49.5 28.74064064025879 48.86565017700195 31.8835506439209 47.61457824707031 34.8414192199707 C 46.40586090087891 37.69915008544922 44.6751594543457 40.26596069335938 42.47055816650391 42.47055816650391 C 40.26596069335938 44.6751594543457 37.69915008544922 46.40586090087891 34.8414192199707 47.61457824707031 C 31.8835506439209 48.86565017700195 28.74064064025879 49.5 25.5 49.5 Z" stroke="none"/>
                      <path d="M 25.5 3 C 22.46120071411133 3 19.51489067077637 3.594478607177734 16.7429084777832 4.766929626464844 C 14.06398010253906 5.900020599365234 11.65742874145508 7.522769927978516 9.590099334716797 9.590099334716797 C 7.522769927978516 11.65742874145508 5.900020599365234 14.06398010253906 4.766929626464844 16.7429084777832 C 3.594478607177734 19.51489067077637 3 22.46120071411133 3 25.5 C 3 28.53879928588867 3.594478607177734 31.48510932922363 4.766929626464844 34.25708770751953 C 5.900020599365234 36.93601989746094 7.522769927978516 39.34257125854492 9.590099334716797 41.4099006652832 C 11.65742874145508 43.47723007202148 14.06398010253906 45.09997940063477 16.7429084777832 46.23307037353516 C 19.51489067077637 47.40552139282227 22.46120071411133 48 25.5 48 C 28.53879928588867 48 31.48510932922363 47.40552139282227 34.25708770751953 46.23307037353516 C 36.93601989746094 45.09997940063477 39.34257125854492 43.47723007202148 41.4099006652832 41.4099006652832 C 43.47723007202148 39.34257125854492 45.09997940063477 36.93601989746094 46.23307037353516 34.25708770751953 C 47.40552139282227 31.48510932922363 48 28.53879928588867 48 25.5 C 48 22.46120071411133 47.40552139282227 19.51489067077637 46.23307037353516 16.7429084777832 C 45.09997940063477 14.06398010253906 43.47723007202148 11.65742874145508 41.4099006652832 9.590099334716797 C 39.34257125854492 7.522769927978516 36.93601989746094 5.900020599365234 34.25708770751953 4.766929626464844 C 31.48510932922363 3.594478607177734 28.53879928588867 3 25.5 3 M 25.5 0 C 39.58325958251953 0 51 11.41674041748047 51 25.5 C 51 39.58325958251953 39.58325958251953 51 25.5 51 C 11.41674041748047 51 0 39.58325958251953 0 25.5 C 0 11.41674041748047 11.41674041748047 0 25.5 0 Z" stroke="none" fill="#404040"/>
                    </g>
                    <path id="Trazado_22" data-name="Trazado 22" d="M.485-9.746v4.282H9.077V-1.21H.485V5.463H-5.02V-14H10.245v4.254Z" transform="translate(290.66 567.696)" fill="#404040"/>
                  </g>
                </g>
              </g>
            </g>
          </g>
        </g>
      </g>
    </g>
  </g>
</svg>
